<?xml version="1.0" encoding="UTF-8"?>
<svg id="Capa_1" data-name="Capa 1" xmlns="http://www.w3.org/2000/svg" viewBox="0 0 642.06 338.86">
  <defs>
    <style>
      .cls-1 {
        fill: #e15a9c;
      }

      .cls-2 {
        fill: #fff;
      }

      .cls-3 {
        fill: #3c3c3b;
      }

      .cls-4 {
        fill: #38a8e0;
      }

      .cls-5 {
        fill: #7361a8;
      }

      .cls-6 {
        fill: #86bf58;
      }
    </style>
  </defs>
  <polygon class="cls-6" points="191.36 97.96 214.76 97.96 202.92 62.73 191.36 97.96"/>
  <path class="cls-6" d="M249.13,136.33h-21.54l-7.42-22.11h-34.23l-7.27,22.11h-21.25v-1.14l33.23-91.28h25.24l33.24,91.28v1.14ZM149.18,143.95h108.19V35.76h-108.19v108.19Z"/>
  <path class="cls-6" d="M325.79,63.45c-2.82-2.19-6.76-3.28-11.8-3.28h-11.07v27.24h8.89c5.83,0,10.32-1.09,13.48-3.28,3.15-2.19,4.74-5.8,4.74-10.84,0-4.37-1.41-7.65-4.22-9.84"/>
  <path class="cls-6" d="M356.54,136.33h-22.63l-23.21-33.66h-7.78v33.66h-19.68V43.91h30.95c8.18,0,15,1.26,20.46,3.78,5.47,2.52,9.54,5.94,12.2,10.27,2.66,4.33,3.99,9.25,3.99,14.76,0,6.47-1.62,12.05-4.85,16.76-3.23,4.71-7.99,8.2-14.26,10.48l24.82,35.23v1.14ZM262.82,143.95h108.19V35.76h-108.19v108.19Z"/>
  <path class="cls-4" d="M469.86,61.17h-29.38v75.16h-19.68V61.17h-29.52v-17.26h78.59v17.26ZM376.47,143.95h108.19V35.76h-108.19v108.19Z"/>
  <path class="cls-4" d="M575.44,136.33h-62.47V43.91h61.76v16.4h-42.07v20.82h36.37l-2.32,16.26h-34.05v22.39h42.78v16.54ZM490.11,143.95h108.19V35.76h-108.19v108.19Z"/>
  <path class="cls-5" d="M235.24,237.58c-3.23,4.23-7.63,7.4-13.19,9.49-5.57,2.09-11.86,3.14-18.9,3.14-14.26,0-26.39-3.71-36.37-11.12l9.13-14.12c8.84,5.61,17.49,8.42,25.95,8.42,5.42,0,9.68-.85,12.77-2.57,3.09-1.71,4.64-4.28,4.64-7.7,0-2.09-.5-3.83-1.5-5.21-1-1.38-2.76-2.71-5.28-3.99-2.52-1.28-6.3-2.92-11.33-4.92l-3.29-1.28c-6.08-2.38-10.98-4.66-14.69-6.85-3.71-2.19-6.66-4.99-8.85-8.42-2.19-3.42-3.28-7.75-3.28-12.98,0-5.8,1.66-10.62,4.99-14.47,3.33-3.85,7.61-6.68,12.84-8.49,5.23-1.81,10.79-2.71,16.68-2.71,5.33,0,10.82.88,16.48,2.64,5.65,1.76,11.06,4.35,16.19,7.77l-9.22,13.98c-4.53-2.76-8.55-4.75-12.05-5.99-3.49-1.24-7.28-1.85-11.34-1.85-4.53,0-7.96.76-10.28,2.28-2.32,1.52-3.47,3.57-3.47,6.13,0,1.62.47,3.07,1.42,4.35.95,1.28,2.65,2.57,5.11,3.85,2.45,1.28,6,2.78,10.63,4.49l3.12,1.14c6.05,2.28,10.94,4.42,14.67,6.42,3.74,2,6.88,4.85,9.43,8.56,2.55,3.71,3.83,8.51,3.83,14.4,0,6.18-1.62,11.39-4.85,15.62M149.34,255.82h108.19v-108.19h-108.19v108.19Z"/>
  <polygon class="cls-5" points="305.17 209.84 328.56 209.84 316.72 174.61 305.17 209.84"/>
  <path class="cls-5" d="M362.93,248.2h-21.54l-7.42-22.11h-34.23l-7.28,22.11h-21.25v-1.14l33.23-91.28h25.24l33.23,91.28v1.14ZM262.99,255.82h108.19v-108.19h-108.19v108.19Z"/>
  <path class="cls-1" d="M471.73,248.2h-21.96l-29.05-43.07c-2.48-3.8-4.58-7.11-6.3-9.91-1.72-2.8-3.38-5.97-5.01-9.48v62.47h-19.68v-92.42h21.68l31.63,47.35c.38.57,1.24,1.88,2.58,3.92,1.33,2.05,2.55,3.97,3.64,5.78,1.1,1.81,2.03,3.56,2.79,5.28v-62.33h19.68v92.42ZM376.63,255.82h108.19v-108.19h-108.19v108.19Z"/>
  <polygon class="cls-1" points="532.46 209.84 555.84 209.84 544.01 174.61 532.46 209.84"/>
  <path class="cls-1" d="M590.22,248.2h-21.54l-7.42-22.11h-34.23l-7.28,22.11h-21.25v-1.14l33.23-91.28h25.24l33.23,91.28v1.14ZM490.27,255.82h108.19v-108.19h-108.19v108.19Z"/>
  <path class="cls-3" d="M143.53,35.76H35.34v108.19h108.19V35.76ZM77.75,43.65h19.68v92.42h-19.68V43.65Z"/>
  <rect class="cls-2" x="37.34" y="278.71" width="3.52" height="24.79"/>
  <path class="cls-2" d="M68.14,278.71v24.79h-3.9l-10.91-16.07-.5-.73c-.05-.1-.21-.34-.48-.73-.27-.38-.5-.74-.69-1.07-.19-.33-.36-.66-.52-.99v19.59h-3.37v-24.79h3.71l11.21,16.41c.1.15.32.47.65.94.33.47.61.9.84,1.3.23.4.42.77.57,1.13v-19.78h3.37Z"/>
  <polygon class="cls-2" points="72.62 278.71 72.62 281.77 81.23 281.77 81.23 303.5 84.75 303.5 84.75 281.77 93.32 281.77 93.32 278.71 72.62 278.71"/>
  <polygon class="cls-2" points="97.79 278.71 97.79 303.5 113.48 303.5 113.48 300.52 101.32 300.52 101.32 292.33 111.42 292.33 111.8 289.42 101.32 289.42 101.32 281.69 113.29 281.69 113.29 278.71 97.79 278.71"/>
  <polygon class="cls-2" points="119.18 278.71 119.18 303.5 134.87 303.5 134.87 300.44 122.7 300.44 122.7 278.71 119.18 278.71"/>
  <rect class="cls-2" x="139.34" y="278.71" width="3.52" height="24.79"/>
  <path class="cls-2" d="M169.07,289.77v12.09c-1.51.71-2.92,1.24-4.25,1.59-1.33.34-2.87.52-4.63.52-2.73,0-4.97-.55-6.73-1.65-1.76-1.1-3.05-2.6-3.87-4.52-.82-1.91-1.22-4.13-1.22-6.66,0-2.96.54-5.4,1.61-7.33,1.07-1.93,2.5-3.33,4.28-4.23,1.79-.89,3.76-1.34,5.93-1.34,1.61,0,3.09.19,4.44.58,1.35.38,2.63.94,3.83,1.68l-1.53,2.68c-.89-.56-1.87-1.01-2.93-1.36-1.06-.35-2.24-.52-3.54-.52-2.88,0-4.99.86-6.33,2.58-1.34,1.72-2.01,4.09-2.01,7.1,0,3.16.64,5.6,1.91,7.32,1.28,1.72,3.35,2.58,6.24,2.58,1.79,0,3.55-.32,5.28-.96v-7.19h-6.35l.38-2.98h9.49Z"/>
  <polygon class="cls-2" points="175.04 278.71 175.04 303.5 190.73 303.5 190.73 300.52 178.56 300.52 178.56 292.33 188.66 292.33 189.05 289.42 178.56 289.42 178.56 281.69 190.54 281.69 190.54 278.71 175.04 278.71"/>
  <path class="cls-2" d="M216.78,278.71v24.79h-3.9l-10.9-16.07-.5-.73c-.05-.1-.21-.34-.48-.73-.27-.38-.5-.74-.69-1.07-.19-.33-.36-.66-.52-.99v19.59h-3.37v-24.79h3.71l11.21,16.41c.1.15.32.47.65.94.33.47.61.9.84,1.3.23.4.42.77.57,1.13v-19.78h3.37Z"/>
  <path class="cls-2" d="M227.34,302.39c-1.71-1.04-2.98-2.53-3.81-4.44-.83-1.91-1.24-4.17-1.24-6.77,0-3.01.53-5.48,1.59-7.41,1.06-1.92,2.44-3.33,4.15-4.21,1.71-.88,3.58-1.32,5.62-1.32,1.56,0,2.99.19,4.3.58,1.31.38,2.57.94,3.77,1.68l-1.53,2.68c-1.99-1.25-4.12-1.88-6.39-1.88-2.65,0-4.61.87-5.87,2.6-1.26,1.74-1.89,4.09-1.89,7.08s.66,5.51,1.99,7.27c1.33,1.76,3.28,2.64,5.85,2.64,1.3,0,2.48-.16,3.52-.5,1.05-.33,2.09-.8,3.14-1.41l1.41,2.56c-1.35.79-2.67,1.39-3.96,1.8-1.29.41-2.71.61-4.27.61-2.55,0-4.68-.52-6.39-1.57"/>
  <rect class="cls-2" x="246.28" y="278.71" width="3.52" height="24.79"/>
  <path class="cls-2" d="M265.62,282.04l4.2,11.48h-8.42l4.21-11.48ZM263.56,278.71l-9.32,24.56v.23h3.52l2.57-7.08h10.56l2.6,7.08h3.67v-.23l-9.32-24.56h-4.29Z"/>
  <polygon class="cls-2" points="306.92 278.71 299.73 290.61 292.81 278.71 288.94 278.71 288.94 278.94 297.86 293.71 297.86 303.5 301.38 303.5 301.38 293.82 310.56 278.94 310.56 278.71 306.92 278.71"/>
  <path class="cls-2" d="M328.46,302.39c-1.71-1.04-2.98-2.53-3.81-4.44-.83-1.91-1.24-4.17-1.24-6.77,0-3.01.53-5.48,1.59-7.41,1.06-1.92,2.44-3.33,4.15-4.21,1.71-.88,3.58-1.32,5.62-1.32,1.56,0,2.99.19,4.31.58,1.31.38,2.57.94,3.77,1.68l-1.53,2.68c-1.99-1.25-4.12-1.88-6.39-1.88-2.65,0-4.61.87-5.87,2.6-1.26,1.74-1.89,4.09-1.89,7.08s.66,5.51,1.99,7.27c1.33,1.76,3.28,2.64,5.85,2.64,1.3,0,2.48-.16,3.52-.5,1.05-.33,2.09-.8,3.14-1.41l1.41,2.56c-1.35.79-2.67,1.39-3.96,1.8-1.29.41-2.71.61-4.27.61-2.55,0-4.68-.52-6.39-1.57"/>
  <path class="cls-2" d="M361.5,299.73c1.21-.83,2.12-1.97,2.72-3.43.6-1.45.9-3.15.9-5.09s-.29-3.73-.86-5.22c-.57-1.49-1.45-2.66-2.62-3.5-1.17-.84-2.64-1.26-4.4-1.26s-3.32.41-4.54,1.24c-1.21.83-2.12,1.97-2.72,3.42-.6,1.45-.9,3.15-.9,5.09s.29,3.73.86,5.22c.57,1.49,1.45,2.66,2.62,3.5,1.17.84,2.64,1.26,4.4,1.26s3.32-.41,4.54-1.24M350.65,302.34c-1.74-1.08-3.04-2.6-3.92-4.53-.88-1.94-1.32-4.19-1.32-6.77,0-2.85.54-5.24,1.61-7.15,1.07-1.91,2.5-3.33,4.29-4.25,1.79-.92,3.76-1.38,5.93-1.38,2.47,0,4.58.54,6.31,1.63,1.74,1.08,3.04,2.59,3.92,4.53.88,1.94,1.32,4.2,1.32,6.77,0,2.86-.54,5.24-1.61,7.15-1.07,1.91-2.5,3.33-4.29,4.25-1.79.92-3.76,1.38-5.93,1.38-2.47,0-4.58-.54-6.31-1.63"/>
  <path class="cls-2" d="M399.48,278.71v24.79h-3.44v-19.05c-.38,1.1-.88,2.25-1.49,3.44l-5.97,11.59h-3.4l-5.85-11.59c-.33-.64-.65-1.26-.94-1.86-.29-.6-.53-1.12-.71-1.55v19.01h-3.37v-24.79h4.02l5.59,10.94c1.51,2.96,2.51,5.19,3.02,6.69.28-.87.67-1.85,1.17-2.94.5-1.1,1.12-2.35,1.86-3.75l5.62-10.94h3.9Z"/>
  <path class="cls-2" d="M410.3,302.62c-1.53-.89-2.66-2.12-3.4-3.69-.74-1.57-1.11-3.35-1.11-5.34v-14.88h3.52v14.12c0,5.38,2.32,8.07,6.96,8.07,2.37,0,4.09-.68,5.15-2.05,1.06-1.36,1.59-3.29,1.59-5.79v-14.35h3.52v14.77c0,2.42-.46,4.42-1.38,5.99-.92,1.57-2.16,2.71-3.73,3.42-1.57.71-3.36,1.07-5.38,1.07-2.3,0-4.21-.45-5.74-1.34"/>
  <path class="cls-2" d="M453.19,278.71v24.79h-3.9l-10.9-16.07-.5-.73c-.05-.1-.21-.34-.48-.73-.27-.38-.5-.74-.69-1.07-.19-.33-.36-.66-.52-.99v19.59h-3.37v-24.79h3.71l11.21,16.41c.1.15.32.47.65.94.33.47.61.9.84,1.3.23.4.42.77.57,1.13v-19.78h3.37Z"/>
  <rect class="cls-2" x="460.12" y="278.71" width="3.52" height="24.79"/>
  <path class="cls-2" d="M474.2,302.39c-1.71-1.04-2.98-2.53-3.81-4.44-.83-1.91-1.24-4.17-1.24-6.77,0-3.01.53-5.48,1.59-7.41,1.06-1.92,2.44-3.33,4.15-4.21,1.71-.88,3.58-1.32,5.62-1.32,1.56,0,2.99.19,4.3.58,1.31.38,2.57.94,3.77,1.68l-1.53,2.68c-1.99-1.25-4.12-1.88-6.39-1.88-2.65,0-4.61.87-5.87,2.6-1.26,1.74-1.89,4.09-1.89,7.08s.66,5.51,1.99,7.27c1.33,1.76,3.28,2.64,5.85,2.64,1.3,0,2.48-.16,3.52-.5,1.05-.33,2.09-.8,3.14-1.41l1.42,2.56c-1.35.79-2.67,1.39-3.96,1.8-1.29.41-2.71.61-4.27.61-2.55,0-4.68-.52-6.39-1.57"/>
  <path class="cls-2" d="M502.03,282.04l4.2,11.48h-8.42l4.21-11.48ZM499.97,278.71l-9.32,24.56v.23h3.52l2.57-7.08h10.56l2.6,7.08h3.67v-.23l-9.32-24.56h-4.29Z"/>
  <path class="cls-2" d="M520.49,302.39c-1.71-1.04-2.98-2.53-3.81-4.44-.83-1.91-1.24-4.17-1.24-6.77,0-3.01.53-5.48,1.59-7.41,1.06-1.92,2.44-3.33,4.15-4.21,1.71-.88,3.58-1.32,5.62-1.32,1.56,0,2.99.19,4.3.58,1.31.38,2.57.94,3.77,1.68l-1.53,2.68c-1.99-1.25-4.12-1.88-6.39-1.88-2.65,0-4.61.87-5.87,2.6-1.26,1.74-1.89,4.09-1.89,7.08s.66,5.51,1.99,7.27c1.33,1.76,3.28,2.64,5.85,2.64,1.3,0,2.48-.16,3.52-.5,1.05-.33,2.09-.8,3.14-1.41l1.42,2.56c-1.35.79-2.67,1.39-3.96,1.8-1.29.41-2.71.61-4.27.61-2.55,0-4.68-.52-6.39-1.57"/>
  <rect class="cls-2" x="539.43" y="278.71" width="3.52" height="24.79"/>
  <path class="cls-2" d="M558.29,276.95l-1.26-1.49,5.97-4.86,1.95,2.72-6.66,3.64ZM564.55,299.73c1.21-.83,2.12-1.97,2.72-3.43.6-1.45.9-3.15.9-5.09s-.29-3.73-.86-5.22c-.57-1.49-1.45-2.66-2.62-3.5-1.17-.84-2.64-1.26-4.4-1.26s-3.32.41-4.54,1.24c-1.21.83-2.12,1.97-2.72,3.42-.6,1.45-.9,3.15-.9,5.09s.29,3.73.86,5.22c.57,1.49,1.45,2.66,2.62,3.5,1.17.84,2.64,1.26,4.4,1.26s3.32-.41,4.54-1.24M553.7,302.34c-1.74-1.08-3.04-2.6-3.92-4.53-.88-1.94-1.32-4.19-1.32-6.77,0-2.85.54-5.24,1.61-7.15,1.07-1.91,2.5-3.33,4.28-4.25,1.79-.92,3.76-1.38,5.93-1.38,2.47,0,4.58.54,6.31,1.63,1.74,1.08,3.04,2.59,3.92,4.53.88,1.94,1.32,4.2,1.32,6.77,0,2.86-.54,5.24-1.61,7.15-1.07,1.91-2.5,3.33-4.29,4.25-1.79.92-3.76,1.38-5.93,1.38-2.47,0-4.58-.54-6.31-1.63"/>
  <path class="cls-2" d="M597.7,278.71v24.79h-3.9l-10.9-16.07-.5-.73c-.05-.1-.21-.34-.48-.73-.27-.38-.5-.74-.69-1.07-.19-.33-.36-.66-.52-.99v19.59h-3.37v-24.79h3.71l11.21,16.41c.1.15.32.47.65.94.33.47.61.9.84,1.3.23.4.42.77.57,1.13v-19.78h3.37Z"/>
</svg>