<?xml version="1.0" encoding="UTF-8"?>
<svg id="Capa_1" data-name="Capa 1" xmlns="http://www.w3.org/2000/svg" viewBox="0 0 420.11 592.51">
  <defs>
    <style>
      .cls-1 {
        fill: #e15a9c;
      }

      .cls-2 {
        fill: #fff;
      }

      .cls-3 {
        fill: #3c3c3b;
      }

      .cls-4 {
        fill: #38a8e0;
      }

      .cls-5 {
        fill: #7361a8;
      }

      .cls-6 {
        fill: #86bf58;
      }
    </style>
  </defs>
  <path class="cls-4" d="M245.17,176.23h-29.38v75.16h-19.68v-75.16h-29.52v-17.26h78.59v17.26ZM151.78,259.02h108.19v-108.19h-108.19v108.19Z"/>
  <path class="cls-4" d="M350.75,251.39h-62.47v-92.42h61.76v16.4h-42.07v20.82h36.37l-2.32,16.26h-34.05v22.39h42.78v16.54ZM265.43,259.02h108.19v-108.19h-108.19v108.19Z"/>
  <path class="cls-5" d="M237.68,352.64c-3.23,4.23-7.63,7.4-13.19,9.49-5.57,2.09-11.86,3.14-18.9,3.14-14.27,0-26.39-3.71-36.37-11.12l9.13-14.12c8.84,5.61,17.49,8.41,25.95,8.41,5.42,0,9.67-.85,12.77-2.57,3.09-1.71,4.64-4.28,4.64-7.7,0-2.09-.5-3.83-1.5-5.21-1-1.38-2.76-2.71-5.28-3.99-2.52-1.28-6.3-2.92-11.33-4.92l-3.29-1.28c-6.08-2.38-10.98-4.66-14.69-6.85-3.71-2.19-6.66-4.99-8.84-8.41-2.19-3.42-3.28-7.75-3.28-12.98,0-5.8,1.66-10.62,4.99-14.48,3.33-3.85,7.61-6.68,12.84-8.49,5.23-1.81,10.79-2.71,16.68-2.71,5.33,0,10.82.88,16.48,2.64,5.65,1.76,11.06,4.35,16.19,7.77l-9.22,13.98c-4.53-2.76-8.55-4.75-12.05-5.99-3.49-1.23-7.28-1.85-11.34-1.85-4.53,0-7.96.76-10.28,2.28-2.32,1.52-3.47,3.56-3.47,6.13,0,1.62.47,3.07,1.42,4.35.95,1.28,2.65,2.57,5.11,3.85,2.45,1.28,6,2.78,10.63,4.49l3.12,1.14c6.05,2.28,10.94,4.42,14.67,6.42,3.74,2,6.88,4.85,9.43,8.56,2.55,3.71,3.83,8.51,3.83,14.4s-1.62,11.39-4.85,15.62M151.78,370.89h108.19v-108.19h-108.19v108.19Z"/>
  <polygon class="cls-5" points="307.61 324.9 331 324.9 319.16 289.67 307.61 324.9"/>
  <path class="cls-5" d="M365.37,363.27h-21.54l-7.42-22.11h-34.23l-7.28,22.11h-21.24v-1.14l33.23-91.28h25.24l33.23,91.28v1.14ZM265.43,370.89h108.19v-108.19h-108.19v108.19Z"/>
  <path class="cls-1" d="M246.88,475.27h-21.96l-29.05-43.07c-2.48-3.8-4.58-7.11-6.3-9.91-1.72-2.8-3.38-5.96-5.01-9.48v62.47h-19.68v-92.42h21.68l31.63,47.35c.38.57,1.24,1.88,2.58,3.92,1.33,2.04,2.55,3.97,3.64,5.78,1.1,1.81,2.03,3.57,2.79,5.28v-62.33h19.68v92.42ZM151.78,482.89h108.19v-108.19h-108.19v108.19Z"/>
  <polygon class="cls-1" points="307.61 436.9 331 436.9 319.16 401.67 307.61 436.9"/>
  <path class="cls-1" d="M365.37,475.27h-21.54l-7.42-22.11h-34.23l-7.28,22.11h-21.25v-1.14l33.23-91.28h25.24l33.23,91.28v1.14ZM265.43,482.89h108.19v-108.19h-108.19v108.19Z"/>
  <polygon class="cls-6" points="193.97 101.03 217.36 101.03 205.52 65.8 193.97 101.03"/>
  <path class="cls-6" d="M251.73,139.39h-21.54l-7.42-22.11h-34.23l-7.27,22.11h-21.25v-1.14l33.23-91.28h25.24l33.24,91.28v1.14ZM151.78,147.02h108.19V38.83h-108.19v108.19Z"/>
  <path class="cls-6" d="M328.4,66.51c-2.82-2.19-6.76-3.28-11.8-3.28h-11.07v27.24h8.89c5.83,0,10.32-1.09,13.47-3.28,3.15-2.19,4.74-5.8,4.74-10.84,0-4.37-1.41-7.65-4.22-9.84"/>
  <path class="cls-6" d="M359.15,139.39h-22.63l-23.21-33.66h-7.78v33.66h-19.68V46.97h30.95c8.18,0,15,1.26,20.46,3.78,5.47,2.52,9.53,5.94,12.2,10.27,2.66,4.33,3.99,9.25,3.99,14.76,0,6.47-1.62,12.05-4.85,16.76-3.23,4.71-7.99,8.2-14.27,10.48l24.82,35.23v1.14ZM265.43,147.02h108.19V38.83h-108.19v108.19Z"/>
  <path class="cls-3" d="M146.14,38.83H37.95v108.19h108.19V38.83ZM80.36,46.71h19.68v92.42h-19.68V46.71Z"/>
  <rect class="cls-2" x="150.65" y="505.74" width="3.27" height="23.01"/>
  <path class="cls-2" d="M179.24,505.74v23.01h-3.62l-10.12-14.92-.46-.67c-.05-.09-.2-.32-.45-.67-.25-.35-.46-.69-.64-.99-.18-.31-.34-.62-.48-.92v18.18h-3.13v-23.01h3.45l10.41,15.24c.09.14.3.43.6.87.31.44.57.84.78,1.21.21.37.39.72.53,1.05v-18.36h3.12Z"/>
  <polygon class="cls-2" points="202.61 505.74 202.61 508.58 194.65 508.58 194.65 528.76 191.38 528.76 191.38 508.58 183.39 508.58 183.39 505.74 202.61 505.74"/>
  <polygon class="cls-2" points="210.03 525.99 221.33 525.99 221.33 528.76 206.76 528.76 206.76 505.74 221.15 505.74 221.15 508.51 210.03 508.51 210.03 515.69 219.76 515.69 219.41 518.39 210.03 518.39 210.03 525.99"/>
  <polygon class="cls-2" points="229.88 525.91 241.18 525.91 241.18 528.76 226.61 528.76 226.61 505.74 229.88 505.74 229.88 525.91"/>
  <rect class="cls-2" x="245.33" y="505.74" width="3.27" height="23.01"/>
  <path class="cls-2" d="M272.93,516.01v11.22c-1.4.66-2.71,1.15-3.94,1.47-1.23.32-2.66.48-4.3.48-2.53,0-4.62-.51-6.25-1.53-1.63-1.02-2.83-2.42-3.59-4.19-.76-1.77-1.14-3.83-1.14-6.18,0-2.75.5-5.01,1.49-6.8,1-1.79,2.32-3.1,3.98-3.92,1.66-.83,3.49-1.24,5.51-1.24,1.49,0,2.86.18,4.12.53,1.26.35,2.44.88,3.55,1.56l-1.42,2.49c-.83-.52-1.74-.94-2.72-1.26-.98-.32-2.08-.48-3.29-.48-2.68,0-4.64.8-5.88,2.4-1.24,1.6-1.86,3.8-1.86,6.59,0,2.94.59,5.2,1.78,6.8,1.18,1.6,3.11,2.4,5.79,2.4,1.66,0,3.29-.29,4.9-.89v-6.68h-5.9l.35-2.77h8.81Z"/>
  <polygon class="cls-2" points="281.74 525.99 293.03 525.99 293.03 528.76 278.47 528.76 278.47 505.74 292.85 505.74 292.85 508.51 281.74 508.51 281.74 515.69 291.47 515.69 291.11 518.39 281.74 518.39 281.74 525.99"/>
  <path class="cls-2" d="M317.22,505.74v23.01h-3.62l-10.12-14.92-.46-.67c-.05-.09-.2-.32-.45-.67-.25-.35-.46-.69-.64-.99-.18-.31-.34-.62-.48-.92v18.18h-3.13v-23.01h3.45l10.41,15.24c.09.14.3.43.6.87.31.44.57.84.78,1.21.21.37.39.72.53,1.05v-18.36h3.12Z"/>
  <path class="cls-2" d="M327.02,527.73c-1.59-.97-2.77-2.34-3.53-4.12-.77-1.78-1.15-3.87-1.15-6.29,0-2.79.49-5.08,1.47-6.87.98-1.79,2.27-3.09,3.85-3.91,1.59-.82,3.33-1.23,5.22-1.23,1.45,0,2.78.18,4,.53,1.22.35,2.38.88,3.5,1.56l-1.42,2.49c-1.85-1.16-3.82-1.74-5.93-1.74-2.46,0-4.28.81-5.45,2.42-1.17,1.61-1.76,3.8-1.76,6.57s.61,5.11,1.85,6.75c1.23,1.63,3.04,2.45,5.43,2.45,1.21,0,2.3-.15,3.27-.46.97-.31,1.94-.74,2.91-1.31l1.31,2.38c-1.26.73-2.48,1.29-3.67,1.67-1.2.38-2.52.57-3.96.57-2.37,0-4.34-.49-5.93-1.46"/>
  <rect class="cls-2" x="344.6" y="505.74" width="3.27" height="23.01"/>
  <path class="cls-2" d="M358.64,519.49h7.81l-3.9-10.66-3.91,10.66ZM364.61,505.74l8.65,22.8v.21h-3.4l-2.41-6.57h-9.8l-2.38,6.57h-3.27v-.21l8.65-22.8h3.98Z"/>
  <polygon class="cls-2" points="103.34 542.1 96.66 553.15 90.23 542.1 86.65 542.1 86.65 542.31 94.92 556.02 94.92 565.11 98.19 565.11 98.19 556.13 106.71 542.31 106.71 542.1 103.34 542.1"/>
  <path class="cls-2" d="M123.33,564.08c-1.59-.97-2.77-2.34-3.53-4.12-.77-1.78-1.16-3.87-1.16-6.29,0-2.79.49-5.08,1.47-6.87.98-1.79,2.27-3.09,3.85-3.91,1.59-.82,3.33-1.23,5.22-1.23,1.45,0,2.78.18,4,.53,1.22.36,2.38.88,3.5,1.56l-1.42,2.49c-1.85-1.16-3.82-1.74-5.93-1.74-2.46,0-4.28.81-5.45,2.42-1.17,1.61-1.76,3.8-1.76,6.57s.61,5.11,1.85,6.75c1.23,1.63,3.04,2.45,5.43,2.45,1.21,0,2.3-.15,3.27-.46.97-.31,1.94-.74,2.91-1.31l1.31,2.38c-1.26.73-2.48,1.29-3.67,1.67-1.2.38-2.52.57-3.96.57-2.37,0-4.34-.49-5.93-1.46"/>
  <path class="cls-2" d="M154,561.61c1.12-.77,1.96-1.83,2.52-3.18.56-1.35.83-2.92.83-4.72s-.27-3.46-.8-4.85c-.53-1.39-1.34-2.47-2.43-3.25-1.09-.78-2.45-1.17-4.08-1.17s-3.08.39-4.21,1.15c-1.12.77-1.96,1.83-2.52,3.18-.56,1.35-.83,2.92-.83,4.72s.27,3.46.8,4.85c.53,1.39,1.34,2.47,2.43,3.25,1.09.78,2.45,1.17,4.08,1.17s3.09-.38,4.21-1.15M143.93,564.03c-1.61-1.01-2.82-2.41-3.64-4.21-.82-1.8-1.22-3.89-1.22-6.29,0-2.65.5-4.86,1.49-6.64,1-1.78,2.32-3.09,3.98-3.94,1.66-.85,3.49-1.28,5.51-1.28,2.3,0,4.25.5,5.86,1.51,1.61,1.01,2.82,2.41,3.64,4.21.82,1.8,1.23,3.89,1.23,6.29,0,2.65-.5,4.86-1.49,6.64-.99,1.78-2.32,3.09-3.98,3.94-1.66.85-3.49,1.28-5.51,1.28-2.3,0-4.25-.5-5.86-1.51"/>
  <path class="cls-2" d="M189.25,542.1v23.01h-3.2v-17.69c-.35,1.02-.82,2.08-1.39,3.2l-5.54,10.76h-3.16l-5.43-10.76c-.31-.59-.6-1.17-.87-1.72-.27-.56-.49-1.03-.66-1.44v17.65h-3.12v-23.01h3.73l5.18,10.16c1.4,2.75,2.33,4.82,2.81,6.21.26-.8.62-1.72,1.08-2.73.46-1.02,1.04-2.18,1.72-3.48l5.22-10.16h3.62Z"/>
  <path class="cls-2" d="M199.3,564.3c-1.42-.83-2.47-1.97-3.16-3.43-.69-1.46-1.03-3.11-1.03-4.95v-13.82h3.27v13.11c0,4.99,2.15,7.49,6.46,7.49,2.2,0,3.79-.63,4.78-1.9.98-1.27,1.47-3.06,1.47-5.38v-13.32h3.27v13.71c0,2.25-.43,4.1-1.28,5.56-.85,1.46-2.01,2.51-3.46,3.18-1.46.66-3.12,1-4.99,1-2.13,0-3.91-.42-5.33-1.24"/>
  <path class="cls-2" d="M239.11,542.1v23.01h-3.62l-10.12-14.92-.46-.67c-.05-.09-.2-.32-.45-.67-.25-.35-.46-.69-.64-1-.18-.31-.34-.61-.48-.92v18.18h-3.13v-23.01h3.45l10.41,15.24c.09.14.3.43.6.87.31.44.57.84.78,1.21.21.37.39.72.53,1.05v-18.36h3.12Z"/>
  <rect class="cls-2" x="245.54" y="542.1" width="3.27" height="23.01"/>
  <path class="cls-2" d="M258.61,564.08c-1.59-.97-2.77-2.34-3.53-4.12-.77-1.78-1.16-3.87-1.16-6.29,0-2.79.49-5.08,1.47-6.87.98-1.79,2.27-3.09,3.85-3.91,1.59-.82,3.33-1.23,5.22-1.23,1.45,0,2.78.18,4,.53,1.22.36,2.39.88,3.5,1.56l-1.42,2.49c-1.85-1.16-3.82-1.74-5.93-1.74-2.46,0-4.28.81-5.45,2.42-1.17,1.61-1.76,3.8-1.76,6.57s.61,5.11,1.85,6.75c1.23,1.63,3.04,2.45,5.43,2.45,1.21,0,2.3-.15,3.27-.46.97-.31,1.94-.74,2.91-1.31l1.31,2.38c-1.26.73-2.48,1.29-3.67,1.67-1.2.38-2.52.57-3.96.57-2.37,0-4.34-.49-5.93-1.46"/>
  <path class="cls-2" d="M284.45,545.19l3.9,10.65h-7.81l3.91-10.65ZM282.53,542.1l-8.65,22.8v.21h3.27l2.38-6.57h9.8l2.41,6.57h3.4v-.21l-8.65-22.8h-3.98Z"/>
  <path class="cls-2" d="M301.59,564.08c-1.59-.97-2.77-2.34-3.53-4.12-.77-1.78-1.16-3.87-1.16-6.29,0-2.79.49-5.08,1.47-6.87.98-1.79,2.27-3.09,3.85-3.91,1.59-.82,3.33-1.23,5.22-1.23,1.45,0,2.78.18,4,.53,1.22.36,2.38.88,3.5,1.56l-1.42,2.49c-1.85-1.16-3.82-1.74-5.93-1.74-2.46,0-4.28.81-5.45,2.42-1.17,1.61-1.76,3.8-1.76,6.57s.61,5.11,1.85,6.75c1.23,1.63,3.04,2.45,5.43,2.45,1.21,0,2.3-.15,3.27-.46.97-.31,1.94-.74,2.91-1.31l1.31,2.38c-1.26.73-2.48,1.29-3.67,1.67-1.2.38-2.52.57-3.96.57-2.37,0-4.34-.49-5.93-1.46"/>
  <rect class="cls-2" x="319.17" y="542.1" width="3.27" height="23.01"/>
  <path class="cls-2" d="M336.68,540.46l-1.17-1.39,5.54-4.51,1.81,2.52-6.18,3.37ZM342.48,561.61c1.12-.77,1.96-1.83,2.52-3.18.56-1.35.83-2.92.83-4.72s-.27-3.46-.8-4.85c-.53-1.39-1.34-2.47-2.43-3.25-1.09-.78-2.45-1.17-4.08-1.17s-3.08.39-4.21,1.15c-1.12.77-1.96,1.83-2.52,3.18-.56,1.35-.83,2.92-.83,4.72s.27,3.46.8,4.85c.53,1.39,1.34,2.47,2.43,3.25,1.09.78,2.45,1.17,4.08,1.17s3.08-.38,4.21-1.15M332.41,564.03c-1.61-1.01-2.82-2.41-3.64-4.21-.82-1.8-1.22-3.89-1.22-6.29,0-2.65.5-4.86,1.49-6.64,1-1.78,2.32-3.09,3.98-3.94,1.66-.85,3.49-1.28,5.51-1.28,2.3,0,4.25.5,5.86,1.51,1.61,1.01,2.82,2.41,3.64,4.21.82,1.8,1.22,3.89,1.22,6.29,0,2.65-.5,4.86-1.49,6.64-.99,1.78-2.32,3.09-3.98,3.94-1.66.85-3.49,1.28-5.51,1.28-2.3,0-4.25-.5-5.86-1.51"/>
  <path class="cls-2" d="M373.26,542.1v23.01h-3.62l-10.12-14.92-.46-.67c-.05-.09-.19-.32-.44-.67-.25-.35-.46-.69-.64-1-.18-.31-.34-.61-.48-.92v18.18h-3.13v-23.01h3.45l10.41,15.24c.09.14.3.43.6.87.31.44.57.84.78,1.21.21.37.39.72.53,1.05v-18.36h3.12Z"/>
</svg>