<?xml version="1.0" encoding="UTF-8"?>
<svg id="Capa_1" data-name="Capa 1" xmlns="http://www.w3.org/2000/svg" viewBox="0 0 232.29 227.67">
  <defs>
    <style>
      .cls-1 {
        fill: #e15a9c;
      }

      .cls-2 {
        fill: none;
      }

      .cls-3 {
        fill: #38a8e0;
      }

      .cls-4 {
        fill: #7361a8;
      }

      .cls-5 {
        fill: #86bf58;
      }
    </style>
  </defs>
  <path class="cls-3" d="M133.9,11.88h78.59v17.26h-29.38v75.16h-19.68V29.14h-29.52V11.88ZM119.1,111.92h108.19V3.73h-108.19v108.19Z"/>
  <path class="cls-4" d="M91.12,206.13c-3.23,4.23-7.63,7.4-13.19,9.49-5.57,2.09-11.86,3.14-18.9,3.14-14.27,0-26.39-3.71-36.37-11.12l9.13-14.12c8.84,5.61,17.49,8.41,25.95,8.41,5.42,0,9.67-.85,12.77-2.57,3.09-1.71,4.64-4.28,4.64-7.7,0-2.09-.5-3.83-1.5-5.2-1-1.38-2.76-2.71-5.28-3.99-2.52-1.28-6.3-2.92-11.33-4.92l-3.28-1.28c-6.08-2.38-10.98-4.66-14.69-6.85-3.71-2.19-6.66-4.99-8.84-8.41-2.19-3.42-3.28-7.75-3.28-12.98,0-5.8,1.66-10.62,4.99-14.47,3.33-3.85,7.61-6.68,12.84-8.49,5.23-1.81,10.79-2.71,16.68-2.71,5.33,0,10.82.88,16.48,2.64,5.65,1.76,11.06,4.35,16.18,7.77l-9.21,13.98c-4.53-2.76-8.55-4.75-12.05-5.99-3.49-1.23-7.28-1.85-11.34-1.85-4.53,0-7.96.76-10.28,2.28-2.32,1.52-3.47,3.56-3.47,6.13,0,1.62.47,3.07,1.42,4.35.94,1.28,2.65,2.57,5.11,3.85,2.45,1.28,6,2.78,10.63,4.49l3.12,1.14c6.05,2.28,10.94,4.42,14.67,6.42,3.74,2,6.88,4.85,9.43,8.56,2.55,3.71,3.83,8.51,3.83,14.4,0,6.18-1.62,11.39-4.85,15.62M5.23,224.38h108.19v-108.19H5.23v108.19Z"/>
  <path class="cls-1" d="M214.2,216.75h-21.97l-29.05-43.07c-2.48-3.8-4.59-7.11-6.3-9.91-1.72-2.8-3.38-5.96-5.01-9.48v62.47h-19.68v-92.42h21.68l31.63,47.35c.38.57,1.24,1.88,2.58,3.92,1.34,2.05,2.55,3.97,3.64,5.78,1.1,1.81,2.03,3.56,2.79,5.28v-62.33h19.68v92.42ZM119.1,224.38h108.19v-108.19h-108.19v108.19Z"/>
  <rect class="cls-2" x="5.23" y="3.73" width="222.06" height="220.64"/>
  <polygon class="cls-5" points="47.41 65.93 70.8 65.93 58.96 30.7 47.41 65.93"/>
  <path class="cls-5" d="M13.47,103.16L46.69,11.88h25.24l33.24,91.28v1.14h-21.54l-7.42-22.11h-34.24l-7.27,22.11H13.47v-1.14ZM5.23,111.92h108.19V3.73H5.23v108.19Z"/>
</svg>