<?xml version="1.0" encoding="UTF-8"?>
<svg id="Capa_1" data-name="Capa 1" xmlns="http://www.w3.org/2000/svg" viewBox="0 0 360.66 711.41">
  <defs>
    <style>
      .cls-1 {
        fill: #e15a9c;
      }

      .cls-2 {
        fill: #fff;
      }

      .cls-3 {
        fill: #3c3c3b;
      }

      .cls-4 {
        fill: #38a8e0;
      }

      .cls-5 {
        fill: #7361a8;
      }

      .cls-6 {
        fill: #86bf58;
      }
    </style>
  </defs>
  <path class="cls-4" d="M135.26,293.15h-29.38v75.16h-19.68v-75.16h-29.52v-17.26h78.59v17.26ZM41.87,375.93h108.19v-108.19H41.87v108.19Z"/>
  <path class="cls-4" d="M240.84,368.31h-62.47v-92.42h61.76v16.4h-42.07v20.82h36.37l-2.32,16.26h-34.05v22.39h42.78v16.54ZM155.52,375.93h108.19v-108.19h-108.19v108.19Z"/>
  <path class="cls-5" d="M127.77,469.56c-3.23,4.23-7.63,7.4-13.19,9.49-5.57,2.09-11.86,3.14-18.9,3.14-14.26,0-26.39-3.71-36.37-11.12l9.13-14.12c8.84,5.61,17.49,8.41,25.95,8.41,5.42,0,9.67-.85,12.77-2.57,3.09-1.71,4.64-4.28,4.64-7.7,0-2.09-.5-3.83-1.5-5.21-1-1.38-2.76-2.71-5.28-3.99-2.52-1.28-6.3-2.92-11.33-4.92l-3.29-1.28c-6.08-2.38-10.98-4.66-14.69-6.85-3.71-2.19-6.66-4.99-8.84-8.41-2.19-3.42-3.28-7.75-3.28-12.98,0-5.8,1.66-10.62,4.99-14.48,3.33-3.85,7.61-6.68,12.84-8.49,5.23-1.81,10.79-2.71,16.68-2.71,5.33,0,10.82.88,16.48,2.64,5.65,1.76,11.05,4.35,16.18,7.77l-9.21,13.98c-4.53-2.76-8.55-4.75-12.05-5.99-3.49-1.23-7.28-1.85-11.34-1.85-4.53,0-7.96.76-10.28,2.28-2.31,1.52-3.47,3.56-3.47,6.13,0,1.62.47,3.07,1.42,4.35.94,1.28,2.65,2.57,5.11,3.85,2.46,1.28,6,2.78,10.63,4.49l3.12,1.14c6.05,2.28,10.94,4.42,14.67,6.42,3.74,2,6.88,4.85,9.43,8.56,2.55,3.71,3.83,8.51,3.83,14.4s-1.62,11.39-4.85,15.62M41.87,487.81h108.19v-108.19H41.87v108.19Z"/>
  <polygon class="cls-5" points="197.7 441.82 221.09 441.82 209.25 406.59 197.7 441.82"/>
  <path class="cls-5" d="M255.46,480.19h-21.54l-7.42-22.11h-34.23l-7.28,22.11h-21.24v-1.14l33.23-91.28h25.24l33.23,91.28v1.14ZM155.52,487.81h108.19v-108.19h-108.19v108.19Z"/>
  <path class="cls-1" d="M136.97,592.19h-21.97l-29.05-43.07c-2.48-3.8-4.58-7.11-6.3-9.91-1.72-2.8-3.38-5.96-5.01-9.48v62.47h-19.68v-92.42h21.68l31.63,47.35c.38.57,1.24,1.88,2.58,3.92,1.33,2.04,2.55,3.97,3.64,5.78,1.1,1.81,2.03,3.57,2.79,5.28v-62.33h19.68v92.42ZM41.87,599.81h108.19v-108.19H41.87v108.19Z"/>
  <polygon class="cls-1" points="197.7 553.82 221.09 553.82 209.25 518.59 197.7 553.82"/>
  <path class="cls-1" d="M255.46,592.19h-21.54l-7.42-22.11h-34.23l-7.28,22.11h-21.25v-1.14l33.23-91.28h25.24l33.23,91.28v1.14ZM155.52,599.81h108.19v-108.19h-108.19v108.19Z"/>
  <polygon class="cls-6" points="84.06 217.95 107.45 217.95 95.61 182.72 84.06 217.95"/>
  <path class="cls-6" d="M141.82,256.31h-21.54l-7.42-22.11h-34.23l-7.27,22.11h-21.25v-1.14l33.23-91.28h25.24l33.24,91.28v1.14ZM41.87,263.93h108.19v-108.19H41.87v108.19Z"/>
  <path class="cls-6" d="M218.49,183.43c-2.82-2.19-6.76-3.28-11.8-3.28h-11.07v27.24h8.89c5.83,0,10.32-1.09,13.47-3.28,3.15-2.19,4.74-5.8,4.74-10.84,0-4.37-1.41-7.65-4.22-9.84"/>
  <path class="cls-6" d="M249.24,256.31h-22.63l-23.21-33.66h-7.78v33.66h-19.68v-92.42h30.95c8.18,0,15,1.26,20.46,3.78,5.47,2.52,9.54,5.94,12.2,10.27,2.66,4.33,3.99,9.25,3.99,14.76,0,6.47-1.62,12.05-4.85,16.76-3.23,4.71-7.99,8.2-14.26,10.48l24.82,35.23v1.14ZM155.52,263.93h108.19v-108.19h-108.19v108.19Z"/>
  <path class="cls-3" d="M150.06,43.75H41.87v108.19h108.19V43.75ZM84.29,51.63h19.68v92.42h-19.68V51.63Z"/>
  <rect class="cls-2" x="40.74" y="622.66" width="3.27" height="23.01"/>
  <path class="cls-2" d="M69.33,622.66v23.01h-3.62l-10.12-14.92-.46-.67c-.05-.09-.2-.32-.45-.67-.25-.35-.46-.69-.64-.99-.18-.31-.34-.62-.48-.92v18.18h-3.13v-23.01h3.45l10.41,15.24c.09.14.3.43.6.87.31.44.57.84.78,1.21.21.37.39.72.53,1.05v-18.36h3.12Z"/>
  <polygon class="cls-2" points="92.7 622.66 92.7 625.5 84.74 625.5 84.74 645.67 81.47 645.67 81.47 625.5 73.48 625.5 73.48 622.66 92.7 622.66"/>
  <polygon class="cls-2" points="100.12 642.9 111.42 642.9 111.42 645.67 96.85 645.67 96.85 622.66 111.24 622.66 111.24 625.43 100.12 625.43 100.12 632.61 109.85 632.61 109.5 635.3 100.12 635.3 100.12 642.9"/>
  <polygon class="cls-2" points="119.97 642.83 131.27 642.83 131.27 645.67 116.7 645.67 116.7 622.66 119.97 622.66 119.97 642.83"/>
  <rect class="cls-2" x="135.42" y="622.66" width="3.27" height="23.01"/>
  <path class="cls-2" d="M163.02,632.92v11.22c-1.4.66-2.71,1.15-3.94,1.47-1.23.32-2.66.48-4.3.48-2.53,0-4.62-.51-6.25-1.53-1.63-1.02-2.83-2.42-3.59-4.19-.76-1.77-1.14-3.83-1.14-6.18,0-2.75.5-5.01,1.49-6.8,1-1.79,2.32-3.1,3.98-3.92,1.66-.83,3.49-1.24,5.51-1.24,1.49,0,2.86.18,4.12.53,1.26.35,2.44.88,3.55,1.56l-1.42,2.49c-.83-.52-1.74-.94-2.72-1.26-.98-.32-2.08-.48-3.29-.48-2.68,0-4.64.8-5.88,2.4-1.24,1.6-1.86,3.8-1.86,6.59,0,2.94.59,5.2,1.78,6.8,1.18,1.6,3.11,2.4,5.79,2.4,1.66,0,3.29-.29,4.9-.89v-6.68h-5.9l.35-2.77h8.81Z"/>
  <polygon class="cls-2" points="171.83 642.9 183.12 642.9 183.12 645.67 168.56 645.67 168.56 622.66 182.94 622.66 182.94 625.43 171.83 625.43 171.83 632.61 181.56 632.61 181.2 635.3 171.83 635.3 171.83 642.9"/>
  <path class="cls-2" d="M207.31,622.66v23.01h-3.62l-10.12-14.92-.46-.67c-.05-.09-.2-.32-.45-.67-.25-.35-.46-.69-.64-.99-.18-.31-.34-.62-.48-.92v18.18h-3.13v-23.01h3.45l10.41,15.24c.09.14.3.43.6.87.31.44.57.84.78,1.21.21.37.39.72.53,1.05v-18.36h3.12Z"/>
  <path class="cls-2" d="M217.11,644.64c-1.59-.97-2.77-2.34-3.53-4.12-.77-1.78-1.15-3.87-1.15-6.29,0-2.79.49-5.08,1.47-6.87.98-1.79,2.27-3.09,3.85-3.91,1.59-.82,3.33-1.23,5.22-1.23,1.45,0,2.78.18,4,.53,1.22.35,2.38.88,3.5,1.56l-1.42,2.49c-1.85-1.16-3.82-1.74-5.93-1.74-2.46,0-4.28.81-5.45,2.42-1.17,1.61-1.76,3.8-1.76,6.57s.61,5.11,1.85,6.75c1.23,1.63,3.04,2.45,5.43,2.45,1.21,0,2.3-.15,3.27-.46.97-.31,1.94-.74,2.91-1.31l1.31,2.38c-1.26.73-2.48,1.29-3.67,1.67-1.2.38-2.52.57-3.96.57-2.37,0-4.34-.49-5.93-1.46"/>
  <rect class="cls-2" x="234.69" y="622.66" width="3.27" height="23.01"/>
  <path class="cls-2" d="M248.73,636.41h7.81l-3.9-10.66-3.91,10.66ZM254.7,622.66l8.65,22.8v.21h-3.4l-2.41-6.57h-9.8l-2.38,6.57h-3.27v-.21l8.65-22.8h3.98Z"/>
  <polygon class="cls-2" points="57.43 659.02 50.75 670.06 44.32 659.02 40.74 659.02 40.74 659.23 49.01 672.94 49.01 682.03 52.28 682.03 52.28 673.05 60.8 659.23 60.8 659.02 57.43 659.02"/>
  <path class="cls-2" d="M77.42,681c-1.59-.97-2.77-2.34-3.53-4.12-.77-1.78-1.16-3.87-1.16-6.29,0-2.79.49-5.08,1.47-6.87.98-1.79,2.27-3.09,3.85-3.91,1.59-.82,3.33-1.23,5.22-1.23,1.45,0,2.78.18,4,.53,1.22.36,2.38.88,3.5,1.56l-1.42,2.49c-1.85-1.16-3.82-1.74-5.93-1.74-2.46,0-4.28.81-5.45,2.42-1.17,1.61-1.76,3.8-1.76,6.57s.61,5.11,1.85,6.75c1.23,1.63,3.04,2.45,5.43,2.45,1.21,0,2.3-.15,3.27-.46.97-.31,1.94-.74,2.91-1.31l1.31,2.38c-1.26.73-2.48,1.29-3.67,1.67-1.2.38-2.52.57-3.96.57-2.37,0-4.34-.49-5.93-1.46"/>
  <path class="cls-2" d="M108.09,678.53c1.12-.77,1.96-1.83,2.52-3.18.56-1.35.83-2.92.83-4.72s-.27-3.46-.8-4.85c-.53-1.39-1.34-2.47-2.43-3.25-1.09-.78-2.45-1.17-4.08-1.17s-3.08.39-4.21,1.15c-1.12.77-1.96,1.83-2.52,3.18-.56,1.35-.83,2.92-.83,4.72s.27,3.46.8,4.85c.53,1.39,1.34,2.47,2.43,3.25,1.09.78,2.45,1.17,4.08,1.17s3.09-.38,4.21-1.15M98.02,680.95c-1.61-1.01-2.82-2.41-3.64-4.21-.82-1.8-1.22-3.89-1.22-6.29,0-2.65.5-4.86,1.49-6.64,1-1.78,2.32-3.09,3.98-3.94,1.66-.85,3.49-1.28,5.51-1.28,2.3,0,4.25.5,5.86,1.51,1.61,1.01,2.82,2.41,3.64,4.21.82,1.8,1.23,3.89,1.23,6.29,0,2.65-.5,4.86-1.49,6.64-.99,1.78-2.32,3.09-3.98,3.94-1.66.85-3.49,1.28-5.51,1.28-2.3,0-4.25-.5-5.86-1.51"/>
  <path class="cls-2" d="M143.34,659.02v23.01h-3.2v-17.69c-.35,1.02-.82,2.08-1.39,3.2l-5.54,10.76h-3.16l-5.43-10.76c-.31-.59-.6-1.17-.87-1.72-.27-.56-.49-1.03-.66-1.44v17.65h-3.12v-23.01h3.73l5.18,10.16c1.4,2.75,2.33,4.82,2.81,6.21.26-.8.62-1.72,1.08-2.73.46-1.02,1.04-2.18,1.72-3.48l5.22-10.16h3.62Z"/>
  <path class="cls-2" d="M153.39,681.21c-1.42-.83-2.47-1.97-3.16-3.43-.69-1.46-1.03-3.11-1.03-4.95v-13.82h3.27v13.11c0,4.99,2.15,7.49,6.46,7.49,2.2,0,3.79-.63,4.78-1.9.98-1.27,1.47-3.06,1.47-5.38v-13.32h3.27v13.71c0,2.25-.43,4.1-1.28,5.56-.85,1.46-2.01,2.51-3.46,3.18-1.46.66-3.12,1-4.99,1-2.13,0-3.91-.42-5.33-1.24"/>
  <path class="cls-2" d="M193.2,659.02v23.01h-3.62l-10.12-14.92-.46-.67c-.05-.09-.2-.32-.45-.67-.25-.35-.46-.69-.64-1-.18-.31-.34-.61-.48-.92v18.18h-3.13v-23.01h3.45l10.41,15.24c.09.14.3.43.6.87.31.44.57.84.78,1.21.21.37.39.72.53,1.05v-18.36h3.12Z"/>
  <rect class="cls-2" x="199.63" y="659.02" width="3.27" height="23.01"/>
  <path class="cls-2" d="M212.7,681c-1.59-.97-2.77-2.34-3.53-4.12-.77-1.78-1.16-3.87-1.16-6.29,0-2.79.49-5.08,1.47-6.87.98-1.79,2.27-3.09,3.85-3.91,1.59-.82,3.33-1.23,5.22-1.23,1.45,0,2.78.18,4,.53,1.22.36,2.39.88,3.5,1.56l-1.42,2.49c-1.85-1.16-3.82-1.74-5.93-1.74-2.46,0-4.28.81-5.45,2.42-1.17,1.61-1.76,3.8-1.76,6.57s.61,5.11,1.85,6.75c1.23,1.63,3.04,2.45,5.43,2.45,1.21,0,2.3-.15,3.27-.46.97-.31,1.94-.74,2.91-1.31l1.31,2.38c-1.26.73-2.48,1.29-3.67,1.67-1.2.38-2.52.57-3.96.57-2.37,0-4.34-.49-5.93-1.46"/>
  <path class="cls-2" d="M238.54,662.11l3.9,10.65h-7.81l3.91-10.65ZM236.62,659.02l-8.65,22.8v.21h3.27l2.38-6.57h9.8l2.41,6.57h3.4v-.21l-8.65-22.8h-3.98Z"/>
  <path class="cls-2" d="M255.68,681c-1.59-.97-2.77-2.34-3.53-4.12-.77-1.78-1.16-3.87-1.16-6.29,0-2.79.49-5.08,1.47-6.87.98-1.79,2.27-3.09,3.85-3.91,1.59-.82,3.33-1.23,5.22-1.23,1.45,0,2.78.18,4,.53,1.22.36,2.38.88,3.5,1.56l-1.42,2.49c-1.85-1.16-3.82-1.74-5.93-1.74-2.46,0-4.28.81-5.45,2.42-1.17,1.61-1.76,3.8-1.76,6.57s.61,5.11,1.85,6.75c1.23,1.63,3.04,2.45,5.43,2.45,1.21,0,2.3-.15,3.27-.46.97-.31,1.94-.74,2.91-1.31l1.31,2.38c-1.26.73-2.48,1.29-3.67,1.67-1.2.38-2.52.57-3.96.57-2.37,0-4.34-.49-5.93-1.46"/>
  <rect class="cls-2" x="273.26" y="659.02" width="3.27" height="23.01"/>
  <path class="cls-2" d="M290.77,657.38l-1.17-1.39,5.54-4.51,1.81,2.52-6.18,3.37ZM296.57,678.53c1.12-.77,1.96-1.83,2.52-3.18.56-1.35.83-2.92.83-4.72s-.27-3.46-.8-4.85c-.53-1.39-1.34-2.47-2.43-3.25-1.09-.78-2.45-1.17-4.08-1.17s-3.08.39-4.21,1.15c-1.12.77-1.96,1.83-2.52,3.18-.56,1.35-.83,2.92-.83,4.72s.27,3.46.8,4.85c.53,1.39,1.34,2.47,2.43,3.25,1.09.78,2.45,1.17,4.08,1.17s3.08-.38,4.21-1.15M286.5,680.95c-1.61-1.01-2.82-2.41-3.64-4.21-.82-1.8-1.22-3.89-1.22-6.29,0-2.65.5-4.86,1.49-6.64,1-1.78,2.32-3.09,3.98-3.94,1.66-.85,3.49-1.28,5.51-1.28,2.3,0,4.25.5,5.86,1.51,1.61,1.01,2.82,2.41,3.64,4.21.82,1.8,1.22,3.89,1.22,6.29,0,2.65-.5,4.86-1.49,6.64-.99,1.78-2.32,3.09-3.98,3.94-1.66.85-3.49,1.28-5.51,1.28-2.3,0-4.25-.5-5.86-1.51"/>
  <path class="cls-2" d="M327.35,659.02v23.01h-3.62l-10.12-14.92-.46-.67c-.05-.09-.19-.32-.44-.67-.25-.35-.46-.69-.64-1-.18-.31-.34-.61-.48-.92v18.18h-3.13v-23.01h3.45l10.41,15.24c.09.14.3.43.6.87.31.44.57.84.78,1.21.21.37.39.72.53,1.05v-18.36h3.12Z"/>
</svg>